<svg width="24" height="22" viewBox="0 0 24 22" fill="none" xmlns="http://www.w3.org/2000/svg">
<g clip-path="url(#clip0_335_225)">
<path d="M23.6603 11.55C23.6616 11.3651 23.566 11.193 23.4083 11.0963H23.4055L23.3956 11.0908L15.197 6.23976C15.1616 6.21585 15.1249 6.194 15.087 6.17431C14.7704 6.01107 14.3944 6.01107 14.0778 6.17431C14.0399 6.19401 14.0032 6.21585 13.9678 6.23976L5.76919 11.0908L5.75929 11.0963C5.50872 11.252 5.4319 11.5813 5.58772 11.8318C5.63363 11.9056 5.69687 11.9671 5.77194 12.0109L13.9705 16.8619C14.0061 16.8856 14.0428 16.9075 14.0806 16.9274C14.3971 17.0906 14.7732 17.0906 15.0897 16.9274C15.1275 16.9075 15.1643 16.8856 15.1998 16.8619L23.3984 12.0109C23.5622 11.9155 23.6621 11.7395 23.6603 11.55Z" fill="#0A2767"/>
<path d="M6.72496 8.31105H12.1052V13.2407H6.72496V8.31105ZM22.5598 3.3V1.04499C22.5727 0.481193 22.1263 0.01351 21.5622 0H7.6004C7.03635 0.01351 6.58989 0.481193 6.60281 1.04499V3.3L14.8564 5.49999L22.5598 3.3Z" fill="#0364B8"/>
<path d="M6.60278 3.29999H12.1052V8.24998H6.60278V3.29999Z" fill="#0078D4"/>
<path d="M17.6076 3.29999H12.1052V8.24998L17.6076 13.2H22.5598V8.24998L17.6076 3.29999Z" fill="#28A8EA"/>
<path d="M12.1052 8.25H17.6076V13.2H12.1052V8.25Z" fill="#0078D4"/>
<path d="M12.1052 13.2H17.6076V18.15H12.1052V13.2Z" fill="#0364B8"/>
<path d="M6.7251 13.2407H12.1054V17.7221H6.7251V13.2407Z" fill="#14447D"/>
<path d="M17.6077 13.2H22.5598V18.15H17.6077V13.2Z" fill="#0078D4"/>
<path d="M23.4084 11.9806L23.3979 11.9861L15.1993 16.5951C15.1636 16.6171 15.1273 16.638 15.0893 16.6567C14.95 16.723 14.7988 16.7604 14.6447 16.7667L14.1968 16.5049C14.1589 16.4859 14.1222 16.4648 14.0867 16.4417L5.77811 11.7018H5.77426L5.50244 11.55V20.8802C5.50668 21.5027 6.01482 22.0039 6.63758 22H22.5428C22.5522 22 22.5605 21.9956 22.5704 21.9956C22.7019 21.9872 22.8316 21.9601 22.9555 21.9153C23.0091 21.8926 23.0608 21.8658 23.1101 21.835C23.147 21.8141 23.2103 21.7684 23.2103 21.7684C23.4922 21.56 23.659 21.2307 23.6604 20.8802V11.55C23.6602 11.7284 23.5639 11.893 23.4084 11.9806Z" fill="url(#paint0_linear_335_225)"/>
<path opacity="0.5" d="M23.2201 11.5131V12.0851L14.6474 17.985L5.77201 11.7056C5.77201 11.7026 5.76954 11.7001 5.7665 11.7001L4.95215 11.2106V10.7981L5.2878 10.7926L5.9976 11.1996L6.0141 11.2051L6.07463 11.2436C6.07463 11.2436 14.4163 16.0011 14.4383 16.0121L14.7574 16.1991C14.7849 16.1881 14.8124 16.1771 14.8455 16.1661C14.862 16.1551 23.1266 11.5076 23.1266 11.5076L23.2201 11.5131Z" fill="#0A2767"/>
<path d="M23.4084 11.9806L23.3979 11.9867L15.1993 16.5957C15.1636 16.6177 15.1272 16.6386 15.0893 16.6573C14.7709 16.8128 14.3985 16.8128 14.0801 16.6573C14.0424 16.6386 14.0057 16.618 13.9701 16.5957L5.77151 11.9867L5.76161 11.9806C5.60332 11.8949 5.50408 11.73 5.50244 11.55V20.8802C5.50638 21.5026 6.01434 22.0039 6.63699 22C6.63699 22 6.63701 22 6.63704 22H22.5258C23.1485 22.004 23.6564 21.5026 23.6604 20.8802C23.6604 20.8802 23.6604 20.8802 23.6604 20.8802V11.55C23.6602 11.7284 23.5639 11.893 23.4084 11.9806Z" fill="#1490DF"/>
<path opacity="0.1" d="M15.3188 16.5275L15.1961 16.5962C15.1605 16.6188 15.1238 16.6396 15.086 16.6584C14.9509 16.7247 14.8039 16.7636 14.6536 16.7728L17.7729 20.46L23.2142 21.7706C23.3633 21.658 23.4819 21.51 23.5592 21.34L15.3188 16.5275Z" fill="black"/>
<path opacity="0.05" d="M15.8745 16.2151L15.1961 16.5962C15.1605 16.6189 15.1238 16.6396 15.086 16.6584C14.9509 16.7247 14.8039 16.7636 14.6536 16.7728L16.115 20.8004L23.2159 21.769C23.4956 21.559 23.6603 21.2298 23.6604 20.8802V20.7597L15.8745 16.2151Z" fill="black"/>
<path d="M6.65244 22H22.5241C22.7684 22.0012 23.0066 21.9241 23.2037 21.78L14.1962 16.506C14.1584 16.4871 14.1216 16.4659 14.0862 16.4428L5.77755 11.7029H5.7737L5.50244 11.55V20.8483C5.50182 21.4837 6.01669 21.9994 6.65244 22V22Z" fill="#28A8EA"/>
<path opacity="0.1" d="M13.2058 5.40814V17.1396C13.2048 17.551 12.9546 17.9207 12.573 18.0746C12.4548 18.1254 12.3275 18.1516 12.1989 18.1516H5.50244V4.94999H6.60293V4.39999H12.1989C12.7548 4.4021 13.2046 4.8525 13.2058 5.40814Z" fill="black"/>
<path opacity="0.2" d="M12.6556 5.95814V17.6896C12.657 17.8225 12.6288 17.954 12.573 18.0746C12.4202 18.4511 12.0551 18.6981 11.6486 18.7H5.50244V4.95H11.6486C11.8083 4.9484 11.9656 4.9882 12.1053 5.0655C12.4426 5.23536 12.6555 5.58063 12.6556 5.95814Z" fill="black"/>
<path opacity="0.2" d="M12.6556 5.95814V16.5896C12.6529 17.145 12.2043 17.5952 11.6486 17.6H5.50244V4.95H11.6486C11.8083 4.9484 11.9656 4.9882 12.1053 5.0655C12.4426 5.23536 12.6555 5.58063 12.6556 5.95814Z" fill="black"/>
<path opacity="0.2" d="M12.1053 5.95813V16.5896C12.1047 17.1459 11.6549 17.5972 11.0984 17.6H5.50244V4.94998H11.0984C11.6548 4.95028 12.1056 5.4014 12.1053 5.95759C12.1053 5.95777 12.1053 5.95795 12.1053 5.95813Z" fill="black"/>
<path d="M1.00859 4.94998H11.0967C11.6537 4.94998 12.1053 5.40135 12.1053 5.95813V16.0418C12.1053 16.5986 11.6537 17.05 11.0967 17.05H1.00859C0.451555 17.05 0 16.5986 0 16.0418V5.95813C0 5.40135 0.451568 4.94998 1.00859 4.94998Z" fill="url(#paint1_linear_335_225)"/>
<path d="M3.15237 9.17839C3.40096 8.649 3.8022 8.20597 4.30458 7.90625C4.86094 7.58786 5.49441 7.42914 6.13524 7.44754C6.72917 7.43467 7.31524 7.58516 7.82943 7.88259C8.31287 8.17077 8.70224 8.59301 8.95027 9.09808C9.22038 9.65463 9.35499 10.2671 9.34314 10.8856C9.35623 11.5319 9.21773 12.1724 8.93871 12.7556C8.68478 13.2787 8.28306 13.716 7.78321 14.0134C7.2492 14.32 6.64137 14.4744 6.02574 14.46C5.41912 14.4747 4.82013 14.3225 4.29413 14.02C3.8065 13.7315 3.41225 13.3088 3.15843 12.8023C2.88672 12.2538 2.7505 11.6482 2.76116 11.0363C2.74984 10.3954 2.88358 9.76032 3.15237 9.17839ZM4.38051 12.1649C4.51305 12.4996 4.7378 12.7898 5.02869 13.002C5.32498 13.209 5.67977 13.3158 6.04113 13.3067C6.42597 13.3219 6.80531 13.2115 7.12181 12.9921C7.40901 12.7806 7.62787 12.4895 7.75128 12.155C7.88924 11.7813 7.95733 11.3856 7.95212 10.9873C7.95638 10.5853 7.89238 10.1855 7.76283 9.80484C7.64841 9.46119 7.43661 9.15816 7.15317 8.93254C6.8446 8.70277 6.46629 8.58623 6.08185 8.60254C5.71265 8.59298 5.34992 8.70061 5.04575 8.90999C4.74994 9.12305 4.52092 9.41588 4.38546 9.75423C4.08497 10.5298 4.08341 11.3893 4.38105 12.166L4.38051 12.1649Z" fill="white"/>
<path d="M17.6077 3.29999H22.5598V8.24998H17.6077V3.29999Z" fill="#50D9FF"/>
</g>
<defs>
<linearGradient id="paint0_linear_335_225" x1="14.5814" y1="11.55" x2="14.5814" y2="22" gradientUnits="userSpaceOnUse">
<stop stop-color="#35B8F1"/>
<stop offset="1" stop-color="#28A8EA"/>
</linearGradient>
<linearGradient id="paint1_linear_335_225" x1="2.10294" y1="4.16224" x2="9.99716" y2="17.8407" gradientUnits="userSpaceOnUse">
<stop stop-color="#1784D9"/>
<stop offset="0.5" stop-color="#107AD5"/>
<stop offset="1" stop-color="#0A63C9"/>
</linearGradient>
<clipPath id="clip0_335_225">
<rect width="23.6604" height="22" fill="white"/>
</clipPath>
</defs>
</svg>
